<svg xmlns="http://www.w3.org/2000/svg" width="48" height="48" viewBox="0 0 48 48" fill="none">
  <path d="M24 4C12.954 4 4 12.954 4 24C4 35.046 12.954 44 24 44C35.046 44 44 35.046 44 24C44 12.954 35.046 4 24 4ZM24 8C32.822 8 40 15.178 40 24C40 32.822 32.822 40 24 40C15.178 40 8 32.822 8 24C8 15.178 15.178 8 24 8Z" fill="#000000"/>
  <path d="M33.666 31.24C32.12 31.24 31.1 30.64 30.4 29.52L27.8 31.72C29.36 33.8 31.46 34.88 33.86 34.88C36.76 34.88 38.8 32.94 38.8 30.28C38.8 27.7 37.24 26.42 34.2 25.44L33.26 25.14C31.68 24.62 31.06 24.26 31.06 23.24C31.06 22.44 31.68 21.82 32.66 21.82C33.62 21.82 34.22 22.22 34.78 23.14L37.26 21.02C36.04 19.14 34.36 18.38 32.66 18.38C29.94 18.38 28 20.18 28 23.32C28 25.84 29.54 27.16 32.2 28.02L33.14 28.32C34.82 28.88 35.7 29.22 35.7 30.36C35.7 31.28 34.84 31.24 33.66 31.24Z" fill="#000000"/>
  <path d="M18.5668 34.64H22.0864V19.2H18.5668V34.64Z" fill="#000000"/>
  <path d="M9.25195 19.2L14.6725 27.54L9.25195 34.64H13.3327L16.7928 29.66L19.9323 34.64H24.0131L18.5131 26.42L23.5927 19.2H19.5723L16.6526 23.42L13.8728 19.2H9.25195Z" fill="#000000"/>
</svg>
