<svg xmlns="http://www.w3.org/2000/svg" width="48" height="48" viewBox="0 0 48 48" fill="none">
  <path fill-rule="evenodd" clip-rule="evenodd" d="M24 6.61612L39.3827 15.308V32.692L24 41.3839L8.61726 32.692V15.308L24 6.61612Z" fill="#E535AB" fill-opacity="0.1"/>
  <path d="M24.0008 6L8 15V33L24.0008 42L40 33V15L24.0008 6ZM38.0007 31.3008L24.0008 39.1997L10 31.3008V16.7003L24.0008 8.79938L38.0007 16.7003V31.3008Z" fill="#E535AB"/>
  <path d="M24 8.5L38.5 16.7V33.2L24 41.4L9.5 33.2V16.7L24 8.5ZM24 6L8 15V33L24 42L40 33V15L24 6Z" fill="#E535AB"/>
  <path d="M24 14L15 19V29L24 34L33 29V19L24 14Z" fill="#E535AB"/>
  <path d="M13.5 32.4L13.5 15.6L30.4 7.19995L33.1 8.79995L13.5 32.4Z" fill="#E535AB"/>
  <path d="M13.5 15.6L34.1 27.1L30.4 40.8L28.6 38.6L13.5 15.6Z" fill="#E535AB"/>
  <path d="M33.1 8.80005L34.9 11L17.5 40.8L14.5 39.2L33.1 8.80005Z" fill="#E535AB"/>
  <path d="M14.5 8.80005L17.5 7.19995L37.5 32.4L34.9 34L14.5 8.80005Z" fill="#E535AB"/>
  <path d="M30.4 7.20007L34.9 11L17.5 7.20007L17.5 4.00007L30.4 7.20007Z" fill="#E535AB"/>
  <path d="M17.5 44L17.5 40.8L34.9 37L37.5 40.2L17.5 44Z" fill="#E535AB"/>
  <path d="M10.5 30L13.5 32.4L13.5 15.6L10.5 18L10.5 30Z" fill="#E535AB"/>
  <path d="M37.5 18L34.9 15.6L34.9 32.4L37.5 30L37.5 18Z" fill="#E535AB"/>
</svg>
