<svg xmlns="http://www.w3.org/2000/svg" width="48" height="48" viewBox="0 0 48 48" fill="none">
  <path d="M40.6144 25.3846C40.6144 23.9551 39.9634 22.6611 38.9243 21.8161C39.4398 20.2506 39.1873 18.5498 38.2201 17.1198C37.253 15.6903 35.7212 14.8899 34.1166 14.8453C33.4103 13.5959 32.2375 12.7064 30.8395 12.4074C29.442 12.1079 28.0439 12.4519 26.9263 13.3414C25.809 12.4519 24.411 12.1079 23.0131 12.4074C21.6151 12.7064 20.4428 13.5959 19.736 14.8453C18.1319 14.8899 16.6001 15.6903 15.633 17.1198C14.6653 18.5498 14.4129 20.2506 14.9288 21.8161C13.8897 22.6611 13.2383 23.9551 13.2383 25.3846C13.2383 26.8141 13.8897 28.1081 14.9288 28.9536C14.4129 30.5186 14.6653 32.2194 15.633 33.6494C16.6001 35.0789 18.1319 35.8793 19.736 35.9239C20.4428 37.1733 21.6151 38.0628 23.0131 38.3618C24.411 38.6613 25.809 38.3173 26.9263 37.4278C28.0439 38.3173 29.442 38.6613 30.8395 38.3618C32.2375 38.0628 33.4103 37.1733 34.1166 35.9239C35.7212 35.8793 37.253 35.0789 38.2201 33.6494C39.1873 32.2194 39.4398 30.5186 38.9243 28.9536C39.9634 28.1081 40.6144 26.8141 40.6144 25.3846ZM35.6776 27.5991L34.2243 27.8981L34.0266 28.1526C33.5656 28.7161 32.9699 29.1491 32.3195 29.4481L32.0124 29.5821L32.1554 29.8811C32.533 30.7706 32.533 31.7046 32.1554 32.5941C31.7779 33.4836 31.0712 34.1811 30.1854 34.5251C29.3001 34.8691 28.3329 34.8246 27.4477 34.4361C26.5624 34.0476 25.8557 33.3046 25.4781 32.4151L25.3897 32.2361L25.195 32.3251C24.7079 32.5356 24.1675 32.6696 23.6267 32.6696C23.0858 32.6696 22.5454 32.5801 22.0583 32.3251L21.8631 32.2361L21.7753 32.4151C21.3977 33.3046 20.691 34.0476 19.8057 34.4361C18.9209 34.8246 17.9533 34.8691 17.068 34.5251C16.1828 34.1811 15.4761 33.4836 15.098 32.5941C14.72 31.7046 14.72 30.7706 15.098 29.8811L15.2417 29.5821L14.9391 29.4371C14.2886 29.1491 13.6929 28.7161 13.2258 28.1526L13.0276 27.8981L11.5748 27.5991C10.7998 27.3896 10.151 26.7816 9.85455 25.9811C9.55761 25.1811 9.65655 24.3361 10.1175 23.6386C10.579 22.9411 11.3405 22.4636 12.1608 22.4636L12.457 22.4636L12.547 22.1646C12.6459 21.8211 12.7895 21.4771 12.9778 21.1776L13.1229 20.9226L12.9333 20.6681C12.4173 19.9261 12.2742 18.9926 12.5717 18.1476C12.8681 17.3021 13.5564 16.6491 14.4137 16.3946C15.3437 16.1296 16.3003 16.3056 17.0733 16.8511L17.306 17.0166L17.539 16.8511C17.9538 16.5521 18.4143 16.3371 18.9003 16.2036L19.1677 16.1296L19.2126 15.8751C19.3558 15.0301 19.8709 14.3326 20.6213 13.9441C21.3718 13.5556 22.2123 13.5111 22.9624 13.8101C23.7132 14.1091 24.2732 14.7176 24.4716 15.5181L24.5437 15.8306L24.8507 15.9201C25.2725 16.0541 25.683 16.2246 26.0606 16.4791L26.3453 16.6896L26.6299 16.4791C26.9528 16.2246 27.3633 16.0541 27.785 15.9201L28.0976 15.8306L28.1701 15.5181C28.3679 14.7176 28.9279 14.1091 29.6788 13.8101C30.4288 13.5111 31.269 13.5111 32.0199 13.9441C32.7703 14.3326 33.2855 15.0301 33.4291 15.8751L33.474 16.1296L33.7419 16.2036C34.2279 16.3371 34.6879 16.5521 35.1032 16.8511L35.3362 17.0166L35.5688 16.8511C36.3418 16.3056 37.2984 16.1296 38.228 16.3946C39.0857 16.6491 39.774 17.3021 40.0704 18.1476C40.3674 18.9926 40.2243 19.9261 39.7088 20.6681L39.5191 20.9226L39.6642 21.1776C39.8526 21.4771 39.9962 21.8211 40.095 22.1646L40.1846 22.4636L40.4804 22.4636C41.3007 22.4636 42.0626 22.9411 42.5241 23.6386C42.9856 24.3361 43.084 25.1811 42.7871 25.9811C42.492 26.7816 41.8424 27.3896 41.0674 27.5991H35.6776Z" fill="#99425B"/>
  <path d="M24.5156 29.2932C24.7135 29.2932 24.9113 29.2377 25.064 29.1382C25.4416 28.9287 25.6394 28.5402 25.6394 28.1072V26.4947H25.0433C24.3365 26.4947 23.7404 25.9397 23.7404 25.2532V24.7647C23.7404 24.0837 24.3365 23.5232 25.0433 23.5232H27.0218C27.7281 23.5232 28.3242 24.0837 28.3242 24.7647V28.1072C28.3242 29.2932 27.7918 30.3937 26.8618 31.0467C26.2432 31.4797 25.5096 31.6892 24.7582 31.6892C23.6851 31.6892 22.7105 31.1892 22.0926 30.3382L21.9717 30.1732L20.0479 31.5362L20.1688 31.7012C21.2412 33.1752 22.9402 34.0422 24.7582 34.0422C26.0908 34.0422 27.3546 33.6092 28.3908 32.8097C30.0954 31.5142 31.0071 29.9042 31.0071 28.1072V24.7647C31.0071 22.7627 29.1927 21.1082 27.0218 21.1082H25.0433C22.8724 21.1082 21.058 22.7627 21.058 24.7647V25.2532C21.058 27.2552 22.8724 28.9042 25.0433 28.9042H23.0649C23.2299 29.1582 23.8537 29.2932 24.5156 29.2932Z" fill="#99425B"/>
  <path d="M18.6453 13.3169C19.1161 12.9731 19.7122 12.8166 20.3074 12.9061C20.9035 12.9956 21.4269 13.3056 21.7492 13.7831C22.0715 14.2606 22.1929 14.8466 22.0494 15.4101C21.9058 15.9736 21.5507 16.4511 21.0798 16.7501C20.609 17.0491 20.0128 17.1611 19.4167 17.0716C18.8211 16.9821 18.2973 16.6721 17.9755 16.1946C17.6526 15.7171 17.5317 15.1311 17.6753 14.5676C17.7742 14.0011 18.1519 13.5236 18.6453 13.3169Z" fill="#99425B"/>
  <path d="M26.2659 13.3169C26.7367 12.9731 27.3328 12.8166 27.9285 12.9061C28.5241 12.9956 29.048 13.3056 29.3703 13.7831C29.6931 14.2606 29.8135 14.8466 29.6705 15.4101C29.5269 15.9736 29.1718 16.4511 28.7009 16.7501C28.2301 17.0491 27.6339 17.1611 27.0383 17.0716C26.4422 16.9821 25.9188 16.6721 25.5965 16.1946C25.2742 15.7171 25.1528 15.1311 25.2964 14.5676C25.3953 14.0011 25.773 13.5236 26.2659 13.3169Z" fill="#99425B"/>
  <path d="M11.7673 20.4796C12.238 20.1366 12.8346 19.9806 13.4302 20.0701C14.0258 20.1596 14.5492 20.4691 14.8715 20.9466C15.1944 21.4241 15.3152 22.0106 15.1722 22.5741C15.0286 23.1376 14.6735 23.6151 14.2027 23.9586C13.7319 24.3021 13.1357 24.4696 12.5401 24.3796C11.944 24.2901 11.4211 23.9806 11.0983 23.5031C10.776 23.0256 10.6546 22.4391 10.7986 21.8756C10.9422 21.3121 11.298 20.8346 11.7673 20.4796Z" fill="#99425B"/>
  <path d="M33.0791 20.4796C33.5504 20.1361 34.147 19.9796 34.7426 20.0691C35.3382 20.1586 35.8621 20.4681 36.1844 20.9456C36.5073 21.4231 36.6281 22.0091 36.4845 22.5731C36.3409 23.1366 35.9858 23.6141 35.5145 23.9576C35.0437 24.3011 34.4481 24.4686 33.8525 24.3791C33.2564 24.2896 32.7335 23.9801 32.4106 23.5026C32.0889 23.0251 31.9675 22.4391 32.111 21.8751C32.2546 21.3121 32.6088 20.8346 33.0791 20.4796Z" fill="#99425B"/>
  <path d="M16.4175 30.3934C16.8882 30.0499 17.4844 29.8939 18.08 29.9834C18.6756 30.0729 19.199 30.3824 19.5213 30.8599C19.8436 31.3374 19.9645 31.9234 19.8215 32.4869C19.6774 33.0504 19.3227 33.5279 18.8514 33.8714C18.3811 34.2149 17.7845 34.3714 17.1889 34.2819C16.5933 34.1924 16.0694 33.8829 15.7471 33.4054C15.4243 32.9279 15.3034 32.3419 15.447 31.7784C15.5906 31.2149 15.9462 30.7374 16.4175 30.3934Z" fill="#99425B"/>
  <path d="M30.3983 30.3934C30.8686 30.0499 31.4647 29.8939 32.0603 29.9834C32.6559 30.0729 33.1793 30.3824 33.5016 30.8599C33.8239 31.3374 33.9453 31.9234 33.8013 32.4869C33.6577 33.0504 33.303 33.5279 32.8322 33.8714C32.3614 34.2149 31.7648 34.3714 31.1692 34.2819C30.5736 34.1924 30.0497 33.8829 29.7274 33.4054C29.4051 32.9279 29.2837 32.3419 29.4273 31.7784C29.5703 31.2149 29.9275 30.7374 30.3983 30.3934Z" fill="#99425B"/>
</svg>
