<svg xmlns="http://www.w3.org/2000/svg" width="48" height="48" viewBox="0 0 48 48" fill="none">
  <path d="M24 44C35.0457 44 44 35.0457 44 24C44 12.9543 35.0457 4 24 4C12.9543 4 4 12.9543 4 24C4 35.0457 12.9543 44 24 44Z" fill="white"/>
  <path d="M36.2207 41.333C35.8955 41.0268 35.58 40.7096 35.2736 40.3824L23.0578 25.6342V40H19.1497V21.2002H22.3184L34.9277 36.4835V21.2002H38.836V38.8027C38.836 38.8027 38.0636 39.2843 36.2207 41.333Z" fill="black"/>
  <path d="M19.1498 40V21.2002H23.0579V40H19.1498Z" fill="black"/>
  <path d="M14.8154 35.5781C11.3106 35.5781 8.45947 32.751 8.45947 29.2764C8.45947 25.8018 11.3106 22.9746 14.8154 22.9746C18.3201 22.9746 21.1713 25.8018 21.1713 29.2764C21.1713 32.751 18.3201 35.5781 14.8154 35.5781ZM14.8154 26.6973C13.377 26.6973 12.2105 27.8506 12.2105 29.2764C12.2105 30.7021 13.377 31.8555 14.8154 31.8555C16.2539 31.8555 17.4204 30.7021 17.4204 29.2764C17.4204 27.8506 16.2539 26.6973 14.8154 26.6973Z" fill="#0070F3"/>
</svg>
