<svg xmlns="http://www.w3.org/2000/svg" width="48" height="48" viewBox="0 0 48 48" fill="none">
  <path d="M23.9997 10.6666C31.3634 10.6666 37.333 16.6362 37.333 23.9999C37.333 31.3636 31.3634 37.3333 23.9997 37.3333C16.636 37.3333 10.6663 31.3636 10.6663 23.9999C10.6663 16.6362 16.636 10.6666 23.9997 10.6666Z" fill="#002C4B"/>
  <path d="M36.7731 32.2067C39.1331 28.8534 39.9997 24.84 39.1331 20.9534C37.9997 16.1334 34.3997 12.36 29.7331 10.9067C25.0664 9.45333 20.1864 10.28 16.4797 13.1734C12.7731 16.0667 10.7464 20.6 11.0664 25.16C11.3864 29.72 13.9331 33.8934 17.9997 36.32C18.2264 36.48 18.6131 36.5333 18.7997 36.3467C18.9864 36.16 18.9997 35.84 18.8264 35.6C18.5864 35.3467 18.3331 35.08 18.0931 34.8267C17.2131 33.8667 16.4664 32.7867 15.9064 31.6267L15.9197 31.6133C15.5997 30.8667 15.3331 30.0933 15.1731 29.2934C15.0531 28.7334 14.9731 28.16 14.9331 27.6C14.8797 26.9467 14.8931 26.2934 14.9597 25.64C15.0264 25.0667 15.1464 24.52 15.3064 23.9867C15.4664 23.4134 15.6397 22.8667 15.8664 22.3334C16.0931 21.8 16.3597 21.2667 16.6664 20.76C16.9597 20.2534 17.2931 19.76 17.6664 19.2934C18.0531 18.8267 18.4664 18.3734 18.9331 17.9467C19.3731 17.52 19.8664 17.12 20.3731 16.76C20.9331 16.4 21.5197 16.0667 22.1197 15.7867C22.6797 15.52 23.2797 15.28 23.8797 15.0933C24.5197 14.8934 25.1864 14.7467 25.8397 14.6533C26.3597 14.5734 26.8931 14.5334 27.4131 14.5334H27.5197C28.0664 14.5334 28.5997 14.5734 29.1331 14.64C29.8264 14.7334 30.5064 14.8934 31.1731 15.0933C31.7597 15.28 32.3464 15.52 32.9197 15.7867C33.5197 16.0667 34.0931 16.4 34.6664 16.76C35.1731 17.12 35.6531 17.52 36.0931 17.9467C36.5731 18.3867 36.9731 18.8267 37.3597 19.2934C37.7197 19.76 38.0664 20.2534 38.3597 20.76C38.6664 21.2667 38.9331 21.8 39.1597 22.3334C39.3864 22.8667 39.5731 23.4134 39.7197 23.9867C39.8797 24.52 39.9997 25.0667 40.0664 25.64C40.1331 26.2934 40.1464 26.9467 40.0931 27.6C40.0531 28.16 39.9731 28.7334 39.8531 29.2934C39.6931 30.0934 39.4397 30.8667 39.1197 31.6134C38.7997 32.3734 38.4264 33.0934 37.9864 33.7867C37.5464 34.48 37.0797 35.1334 36.5597 35.7334C36.2797 36.0534 36.3331 36.48 36.6531 36.7734C36.9731 37.0667 37.4264 37.0667 37.7064 36.7734C38.0931 36.3334 38.4664 35.8667 38.7997 35.4134C39.2531 34.7734 39.6397 34.0934 39.9997 33.3867C40.4397 32.44 40.7597 31.4667 40.9997 30.4534L40.9731 30.48C41.1864 29.0267 41.1731 27.5734 40.9464 26.1334C40.7331 24.84 40.3731 23.6 39.8664 22.4267C39.3597 21.2534 38.7197 20.16 37.9331 19.1733C37.1464 18.1867 36.2264 17.2934 35.1997 16.5067C34.1731 15.72 33.0397 15.0533 31.8397 14.5333C30.6397 14.0134 29.3864 13.6667 28.0797 13.4667C26.7731 13.2667 25.4664 13.2667 24.1597 13.4534C22.8531 13.6534 21.5731 14 20.3731 14.52C19.1731 15.04 18.0397 15.7067 17.0131 16.4934C15.9864 17.28 15.0664 18.1734 14.2797 19.16C13.4931 20.1467 12.8531 21.24 12.3464 22.4134C11.8397 23.5867 11.4797 24.8267 11.2664 26.12C11.0531 27.4134 11.0397 28.7334 11.2264 30.0267H11.2131C11.4531 31.4667 11.8797 32.84 12.4797 34.1334C12.7864 34.8 13.1331 35.4534 13.5331 36.08C13.9331 36.7067 14.3731 37.32 14.8664 37.8934C14.9331 37.9734 14.9864 38.04 15.0531 38.1067C15.2797 38.3467 15.5997 38.3734 15.8531 38.1867C16.1064 38 16.1731 37.7067 16.0264 37.4267C15.6664 36.68 16.3331 36.0534 16.9064 35.6267C17.0264 35.5467 17.1064 35.4667 17.2131 35.3467C17.3597 35.2134 17.4931 35.0667 17.6531 34.9467C17.9331 34.7067 18.2264 34.4667 18.5064 34.2267C18.8131 33.9467 19.1731 33.6667 19.5331 33.4C19.9731 33.08 20.4264 32.7867 20.8931 32.5334C21.4397 32.2267 22.0131 31.96 22.6131 31.7334C23.2131 31.5064 23.8397 31.32 24.4797 31.2134C25.0931 31.1067 25.7331 31.0534 26.3597 31.0267C26.9997 31.0267 27.6397 31.0534 28.2664 31.1334C28.9064 31.2134 29.5331 31.3467 30.1464 31.5467C30.7331 31.7334 31.3197 31.9734 31.8797 32.2667C32.3597 32.52 32.8264 32.8267 33.2664 33.1467C33.6264 33.4134 33.9731 33.7067 34.3064 34C34.5997 34.2534 34.8931 34.5334 35.1597 34.8134C35.3331 35.0267 35.7064 34.9867 35.8931 34.7867C36.0797 34.5867 36.0663 34.24 35.8664 34.04C35.6264 33.7734 35.3731 33.4934 35.1064 33.2267C34.7064 32.8534 34.2931 32.5067 33.8664 32.1734C33.3464 31.8 32.8131 31.4534 32.2664 31.1334C31.6931 30.8 31.0797 30.5067 30.4664 30.2534C29.8531 30 29.2131 29.8 28.5731 29.6534C27.9197 29.5067 27.2397 29.4267 26.5731 29.3734C25.8931 29.32 25.2131 29.32 24.5331 29.3734C23.8533 29.4267 23.1997 29.5334 22.5464 29.68C21.9064 29.8267 21.2797 30.0267 20.6664 30.28C20.0664 30.5334 19.4797 30.8267 18.9331 31.16C18.3731 31.48 17.8531 31.8534 17.3464 32.2534C16.8397 32.6534 16.3864 33.0934 15.9464 33.56C15.7464 33.7734 15.5597 34 15.3864 34.2267C15.2664 34.3734 15.1331 34.5334 15.0131 34.68C15.3864 35 15.7731 35.32 16.1864 35.6267C16.3597 35.7467 16.5464 35.88 16.7197 35.9734C17.1064 36.2133 17.5197 36.4267 17.9331 36.6399C18.8264 37.0666 19.7864 37.4133 20.7597 37.6666C20.8 37.6666 20.8397 37.6933 20.8797 37.6933C22.5731 38.1333 24.3864 38.24 26.1731 38C27.9731 37.7733 29.7331 37.24 31.3731 36.4133C32.9997 35.5867 34.4531 34.4534 35.6397 33.1067C35.7597 32.9733 35.8397 32.8267 35.9597 32.6933C36.2664 32.32 36.5331 31.9333 36.7731 31.5467V32.2067Z" fill="#FF4154"/>
  <path d="M24 33.3333C28.4183 33.3333 32 29.7516 32 25.3333C32 20.9151 28.4183 17.3333 24 17.3333C19.5817 17.3333 16 20.9151 16 25.3333C16 29.7516 19.5817 33.3333 24 33.3333Z" fill="#FF4154"/>
  <path d="M24 28C25.4728 28 26.6667 26.8061 26.6667 25.3333C26.6667 23.8606 25.4728 22.6667 24 22.6667C22.5272 22.6667 21.3333 23.8606 21.3333 25.3333C21.3333 26.8061 22.5272 28 24 28Z" fill="#002C4B"/>
</svg>
