<svg xmlns="http://www.w3.org/2000/svg" width="48" height="48" viewBox="0 0 48 48" fill="none">
  <path d="M29.2488 31.0429C30.6856 30.8571 31.742 29.6 31.5562 28.1714C31.3703 26.7429 30.113 25.6857 28.6762 25.8714C27.2393 26.0571 26.183 27.3143 26.3688 28.7429C26.5547 29.8 27.4251 30.6714 28.4814 30.8571C28.4814 30.6714 28.4814 30.4857 28.6673 30.3C29.0629 29.3659 29.5677 28.4784 30.1723 27.6571C30.5469 28.4784 30.84 29.3474 31.0469 30.2429C30.4831 30.5857 29.8831 30.8571 29.2488 31.0429ZM35.4438 28C35.3049 27.3851 35.1326 26.7787 34.9277 26.1829C36.4336 23.9184 36.8154 21.2255 36.0073 18.7429C34.8841 15.4857 31.7421 13.2571 28.3018 13.0714C28.3018 12.7429 28.1159 12.4143 28.1159 12.0857C28.1159 11.5714 27.9301 11.0571 27.7442 10.7286C27.1865 9.7 26.0644 9.14286 24.8108 9.33857C23.4951 9.52571 22.4681 10.5543 22.2823 11.8429C22.2823 11.8429 22.2823 12 22.2823 12.0857C22.2823 12.4143 22.2823 12.7429 22.2823 13.0714C22.0965 13.0714 21.9106 13.0714 21.7248 13.0714C18.6543 13.0714 15.77 14.5 14.2743 16.9143C12.7175 19.5143 12.9644 22.8571 14.8319 25.2714C14.0295 26.8857 13.4754 28.5714 13.1634 30.2571C12.7803 32.5857 13.0371 34.7429 14.0933 36.5143C15.5902 38.9143 18.2887 40.3429 21.1731 40.3429C22.6364 40.3429 24.0732 39.9429 25.3823 39.1429C26.9389 39.8 28.6762 40.1714 30.4136 40C33.6699 39.6571 36.5542 37.8 37.9911 35.0286C39.4279 31.8286 38.8078 28.1857 35.4438 28ZM21.1731 38.3286C18.6543 38.3286 16.39 37.2 15.2047 35.2571C14.2743 33.7429 14.0885 31.9714 14.4005 30.0286C14.6474 28.7429 15.2047 27.4571 15.8837 26.3143C15.8988 26.3429 15.9114 26.3714 15.9265 26.4C16.5456 27.9143 17.7235 29.1571 19.1604 29.8857C19.1604 30.0714 19.3462 30.2571 19.532 30.2571C20.47 30.0714 21.2195 29.1429 20.8453 28.1714C20.6594 27.6571 20.1053 27.3286 19.5334 27.5143C19.1604 27.7 19.1604 27.7 18.7873 27.5143C17.8559 27.1857 17.2996 26.4857 16.9276 25.6857C16.3705 24.5429 16.1847 23.4 16.5577 22.0714C16.7436 21.3714 17.1166 20.6714 17.6738 20.1571C17.8596 20.3429 18.0455 20.5286 18.2313 20.7143C18.7873 21.2286 19.5291 21.7429 20.47 22.0714C21.7791 22.5857 23.2802 22.7714 24.7813 22.5857C25.1543 22.5629 25.5274 22.4857 25.9004 22.4143C25.9194 23.5571 26.5274 24.6629 27.5105 25.2857C28.4814 25.9143 29.6382 26.1 30.7252 25.6571C31.4453 25.4 31.9867 24.9143 32.3598 24.3286C32.8389 23.5571 33.1281 22.5857 33.1909 21.6143C33.2537 20.3286 32.8806 19.0429 32.1315 18C31.3824 16.8571 30.2682 16.0571 28.9527 15.6571C27.9522 15.3286 26.8885 15.2286 25.8322 15.3429C25.8322 15.1571 25.8322 14.9714 25.8322 14.7857C25.8562 14.7857 25.8841 14.7857 25.9081 14.7857C28.7924 14.7857 31.5562 16.4714 32.5026 19.0429C33.1217 20.8857 32.9359 22.9143 31.9114 24.5714C32.4244 24.9857 32.942 25.4 33.4529 25.8857C34.3833 26.8571 34.9403 28.0714 34.9403 29.2857C34.9403 30.6143 34.3833 31.8286 33.4529 32.6286C31.9867 33.8429 29.9675 34.1714 28.1223 33.8429C27.7493 33.7671 27.3856 33.6571 27.0377 33.5429C26.5984 33.8714 26.1278 34.1429 25.6199 34.3857C23.0948 35.6 20.1053 35.6 17.7244 34.1714C18.3434 35.3143 19.655 38.3286 21.1731 38.3286ZM31.4474 31.6429C32.5634 31.0112 33.3425 29.9254 33.5562 28.6714C33.742 27.2429 33.1849 25.8143 32.0692 24.9C31.8834 24.7143 31.5104 24.5286 31.2517 24.3429C31.1753 25.2 30.9643 26.0122 30.6315 26.7857C30.1128 25.9429 29.5128 25.1429 28.8265 24.4143C28.8265 24.4143 28.8265 24.4143 28.6407 24.2286C27.6093 23.2 26.2052 22.7143 24.7877 22.9714C23.8573 23.1571 22.9269 23.7428 22.3699 24.5429C21.9968 25.0572 21.8109 25.7572 21.8109 26.4572C21.8109 26.8572 21.8109 27.2571 21.9968 27.6571C22.2731 28.4286 22.8301 29.2286 23.3872 29.7429C24.0063 30.3286 24.8112 30.8429 25.6164 31.0286C27.2916 31.6143 29.5191 31.8 31.4474 31.6429ZM25.1246 19.5143H25.3104C26.4265 19.5143 27.5426 19.7 28.4731 20.0286C29.4034 20.3571 30.148 20.8714 30.7139 21.5714C31.0911 22.0857 31.3364 22.7857 31.3364 23.4857C31.3364 23.6714 31.3364 23.8571 31.3364 24.0429C31.2828 24.0429 31.2293 24.0429 31.1753 24.0429C30.8054 24.0429 30.4344 23.9657 30.0613 23.8857C30.0613 23.7 30.0613 23.5143 30.0613 23.3286C30.0613 22.8143 29.9333 22.3 29.5669 21.8571C28.9478 21.1571 27.9522 20.6429 26.8361 20.5286C26.288 20.4557 25.7427 20.5029 25.2175 20.6286C25.1246 20.2286 25.1246 19.8286 25.1246 19.5143Z" fill="#764ABC"/>
</svg>
